<svg xmlns="http://www.w3.org/2000/svg" width="496" height="503" viewBox="0 0 496 503" version="1.1"><path d="M 234.923 102.923 C 232.005 105.841, 232 105.869, 232 118.298 L 232 130.749 222.750 133.959 C 217.662 135.724, 211.058 138.480, 208.072 140.084 C 205.087 141.688, 202.192 143, 201.637 143 C 201.083 143, 196.721 139.175, 191.944 134.500 C 184.053 126.778, 182.901 126, 179.367 126 C 175.673 126, 174.687 126.796, 159.837 141.750 C 151.235 150.412, 143.903 158.496, 143.543 159.712 C 142.603 162.894, 144.264 165.475, 153.175 174.676 L 161.094 182.852 156.689 191.676 C 154.266 196.529, 151.293 203.508, 150.082 207.184 C 147.487 215.065, 147.012 215.281, 133.308 214.807 C 126.118 214.559, 123.898 214.839, 121.708 216.273 L 119 218.046 119 242.466 C 119 272.079, 117.822 270, 134.600 270 C 142.331 270, 146.058 270.384, 146.743 271.250 C 147.286 271.938, 148.724 275.650, 149.939 279.500 C 151.153 283.350, 153.801 289.875, 155.823 294 C 157.846 298.125, 159.654 301.850, 159.842 302.277 C 160.031 302.705, 156.453 306.878, 151.892 311.551 C 139.755 323.985, 139.542 323.113, 159.612 343.075 C 179.693 363.047, 179.010 362.876, 191.357 351.022 L 199.667 343.045 207.583 347.051 C 211.937 349.255, 219.100 352.286, 223.500 353.786 L 231.500 356.513 232 368.233 C 232.733 385.415, 231.159 384.500, 260 384.500 C 288.841 384.500, 287.267 385.414, 288 368.238 L 288.500 356.522 297.641 353.412 C 302.669 351.702, 309.779 348.656, 313.441 346.643 C 318.463 343.882, 320.518 343.223, 321.800 343.958 C 322.735 344.494, 326.616 348.098, 330.425 351.966 C 340.922 362.629, 340.613 362.719, 360.222 343.250 C 368.947 334.587, 376.332 326.520, 376.633 325.322 C 377.521 321.789, 376.409 319.940, 368.111 311.153 L 360.227 302.806 364.527 293.604 C 366.892 288.543, 369.586 281.725, 370.513 278.451 C 371.440 275.178, 372.915 271.938, 373.790 271.250 C 374.839 270.426, 379.045 270, 386.120 270 C 394.548 270, 397.195 269.662, 398.429 268.429 C 400.781 266.076, 400.788 217.899, 398.436 215.947 C 397.410 215.096, 393.022 214.555, 385.686 214.376 C 379.534 214.226, 373.969 214.080, 373.320 214.052 C 372.671 214.023, 371.114 210.749, 369.860 206.775 C 368.605 202.801, 365.655 195.779, 363.304 191.170 L 359.028 182.791 368.014 173.486 C 373.750 167.546, 377 163.390, 377 161.995 C 377 158.249, 374.211 154.772, 359.491 140.162 C 345.777 126.553, 345.060 126, 341.106 126 C 337.295 126, 336.345 126.628, 328.246 134.498 C 323.436 139.172, 319.151 142.997, 318.725 142.998 C 318.299 142.999, 314.924 141.488, 311.225 139.641 C 307.526 137.793, 301.350 135.258, 297.500 134.007 C 293.650 132.757, 289.938 131.289, 289.250 130.744 C 288.377 130.053, 288 126.201, 288 117.954 C 288 106.718, 287.876 106.006, 285.411 103.077 L 282.822 100 260.334 100 L 237.846 100 234.923 102.923 M 244 159.434 C 225.914 163.280, 211.975 171.009, 199.354 184.191 C 163.035 222.125, 169.767 283.536, 213.414 312.448 C 227.113 321.521, 238.719 325.423, 255.500 326.597 C 288.984 328.939, 321.614 309.314, 336.446 277.911 C 342.280 265.560, 343.500 259.435, 343.500 242.500 C 343.500 231.211, 343.061 225.908, 341.724 221.066 C 333.700 192.007, 311.507 169.506, 282.380 160.900 C 273.378 158.241, 253.234 157.471, 244 159.434 M 242.376 166.491 C 228.598 169.488, 212.777 178.980, 202.051 190.685 C 195.154 198.212, 187.057 213.327, 184.511 223.427 C 177.754 250.235, 185.429 277.326, 205.503 297.525 C 213.299 305.369, 215.914 307.282, 225.003 311.795 C 230.923 314.735, 238.552 317.652, 242.500 318.486 C 250.773 320.234, 267.225 320.445, 275.532 318.909 C 303.216 313.792, 327.885 290.544, 335.428 262.464 C 336.309 259.184, 337.303 252.225, 337.637 247 C 339.991 210.147, 315.218 176.135, 279.339 166.959 C 270.246 164.633, 251.980 164.402, 242.376 166.491 M 244.561 167.581 C 229.326 170.998, 217.109 177.780, 206 188.986 C 191.154 203.962, 184.057 221.429, 184.017 243.090 C 183.919 297.186, 239.357 333.785, 289.691 312.853 C 311.710 303.696, 328.953 283.261, 334.495 259.756 C 336.668 250.543, 336.445 233.059, 334.035 223.636 C 329.838 207.228, 318.226 190.220, 304.655 180.604 C 296.801 175.040, 292.005 172.643, 282.306 169.434 C 272.188 166.086, 254.991 165.242, 244.561 167.581 M 225 240.500 L 225 276 231.500 276 L 238 276 238 240.500 L 238 205 231.500 205 L 225 205 225 240.500 M 243 240.500 L 243 276.091 249.750 275.796 L 256.500 275.500 256.500 240.500 L 256.500 205.500 249.750 205.204 L 243 204.909 243 240.500 M 296.334 206.214 C 295.801 206.922, 291.818 216.192, 287.483 226.815 C 283.147 237.437, 279.341 246.289, 279.025 246.485 C 278.708 246.680, 274.861 239.927, 270.475 231.477 L 262.500 216.113 262.222 230.145 L 261.944 244.177 270.170 260.088 C 275.743 270.869, 278.926 276, 280.043 276 C 281.242 276, 284.034 270.361, 290.317 255.250 C 295.062 243.838, 299.520 232.925, 300.222 231 C 301.340 227.937, 301.562 230.497, 302 251.500 L 302.500 275.500 309 275.500 L 315.500 275.500 315.500 240.500 L 315.500 205.500 306.402 205.214 C 299.878 205.010, 297.030 205.293, 296.334 206.214 M 210 247.311 L 204.500 250.613 204 257.556 C 203.423 265.569, 204.196 272.596, 205.835 274.235 C 206.461 274.861, 209.116 275.401, 211.736 275.436 L 216.500 275.500 216.775 259.750 C 216.927 251.088, 216.702 244.002, 216.275 244.004 C 215.849 244.006, 213.025 245.494, 210 247.311" stroke="none" fill="#ffffff" fill-rule="evenodd"/><path d="M 239.500 41.114 C 207.438 44.122, 172.155 56.710, 145.084 74.800 C 97.605 106.529, 65.666 153.786, 53.373 210.500 C 50.682 222.914, 50.555 224.694, 50.548 250 C 50.542 271.047, 50.902 278.455, 52.299 286 C 60.009 327.644, 76.993 362.494, 104.443 393 C 134.238 426.112, 176.595 450.251, 220.263 459.005 C 258.503 466.671, 305.620 462.190, 338.446 447.765 C 341.226 446.543, 348.675 442.973, 355 439.830 C 396.042 419.439, 430.225 384.673, 450.207 343 C 459.193 324.259, 459.593 323.297, 462.874 312.500 C 469.991 289.083, 472.973 262.210, 471.174 237.715 C 468.800 205.407, 461.873 181.316, 446.814 153 C 406.207 76.646, 325.436 33.054, 239.500 41.114 M 234.923 102.923 C 232.005 105.841, 232 105.869, 232 118.298 L 232 130.749 222.750 133.959 C 217.662 135.724, 211.058 138.480, 208.072 140.084 C 205.087 141.688, 202.192 143, 201.637 143 C 201.083 143, 196.721 139.175, 191.944 134.500 C 184.053 126.778, 182.901 126, 179.367 126 C 175.673 126, 174.687 126.796, 159.837 141.750 C 151.235 150.412, 143.903 158.496, 143.543 159.712 C 142.603 162.894, 144.264 165.475, 153.175 174.676 L 161.094 182.852 156.689 191.676 C 154.266 196.529, 151.293 203.508, 150.082 207.184 C 147.487 215.065, 147.012 215.281, 133.308 214.807 C 126.118 214.559, 123.898 214.839, 121.708 216.273 L 119 218.046 119 242.466 C 119 272.079, 117.822 270, 134.600 270 C 142.331 270, 146.058 270.384, 146.743 271.250 C 147.286 271.938, 148.724 275.650, 149.939 279.500 C 151.153 283.350, 153.801 289.875, 155.823 294 C 157.846 298.125, 159.654 301.850, 159.842 302.277 C 160.031 302.705, 156.453 306.878, 151.892 311.551 C 139.755 323.985, 139.542 323.113, 159.612 343.075 C 179.693 363.047, 179.010 362.876, 191.357 351.022 L 199.667 343.045 207.583 347.051 C 211.937 349.255, 219.100 352.286, 223.500 353.786 L 231.500 356.513 232 368.233 C 232.733 385.415, 231.159 384.500, 260 384.500 C 288.841 384.500, 287.267 385.414, 288 368.238 L 288.500 356.522 297.641 353.412 C 302.669 351.702, 309.779 348.656, 313.441 346.643 C 318.463 343.882, 320.518 343.223, 321.800 343.958 C 322.735 344.494, 326.616 348.098, 330.425 351.966 C 340.922 362.629, 340.613 362.719, 360.222 343.250 C 368.947 334.587, 376.332 326.520, 376.633 325.322 C 377.521 321.789, 376.409 319.940, 368.111 311.153 L 360.227 302.806 364.527 293.604 C 366.892 288.543, 369.586 281.725, 370.513 278.451 C 371.440 275.178, 372.915 271.938, 373.790 271.250 C 374.839 270.426, 379.045 270, 386.120 270 C 394.548 270, 397.195 269.662, 398.429 268.429 C 400.781 266.076, 400.788 217.899, 398.436 215.947 C 397.410 215.096, 393.022 214.555, 385.686 214.376 C 379.534 214.226, 373.969 214.080, 373.320 214.052 C 372.671 214.023, 371.114 210.749, 369.860 206.775 C 368.605 202.801, 365.655 195.779, 363.304 191.170 L 359.028 182.791 368.014 173.486 C 373.750 167.546, 377 163.390, 377 161.995 C 377 158.249, 374.211 154.772, 359.491 140.162 C 345.777 126.553, 345.060 126, 341.106 126 C 337.295 126, 336.345 126.628, 328.246 134.498 C 323.436 139.172, 319.151 142.997, 318.725 142.998 C 318.299 142.999, 314.924 141.488, 311.225 139.641 C 307.526 137.793, 301.350 135.258, 297.500 134.007 C 293.650 132.757, 289.938 131.289, 289.250 130.744 C 288.377 130.053, 288 126.201, 288 117.954 C 288 106.718, 287.876 106.006, 285.411 103.077 L 282.822 100 260.334 100 L 237.846 100 234.923 102.923 M 244 159.434 C 225.914 163.280, 211.975 171.009, 199.354 184.191 C 163.035 222.125, 169.767 283.536, 213.414 312.448 C 227.113 321.521, 238.719 325.423, 255.500 326.597 C 288.984 328.939, 321.614 309.314, 336.446 277.911 C 342.280 265.560, 343.500 259.435, 343.500 242.500 C 343.500 231.211, 343.061 225.908, 341.724 221.066 C 333.700 192.007, 311.507 169.506, 282.380 160.900 C 273.378 158.241, 253.234 157.471, 244 159.434 M 242.376 166.491 C 228.598 169.488, 212.777 178.980, 202.051 190.685 C 195.154 198.212, 187.057 213.327, 184.511 223.427 C 177.754 250.235, 185.429 277.326, 205.503 297.525 C 213.299 305.369, 215.914 307.282, 225.003 311.795 C 230.923 314.735, 238.552 317.652, 242.500 318.486 C 250.773 320.234, 267.225 320.445, 275.532 318.909 C 303.216 313.792, 327.885 290.544, 335.428 262.464 C 336.309 259.184, 337.303 252.225, 337.637 247 C 339.991 210.147, 315.218 176.135, 279.339 166.959 C 270.246 164.633, 251.980 164.402, 242.376 166.491 M 244.561 167.581 C 229.326 170.998, 217.109 177.780, 206 188.986 C 191.154 203.962, 184.057 221.429, 184.017 243.090 C 183.919 297.186, 239.357 333.785, 289.691 312.853 C 311.710 303.696, 328.953 283.261, 334.495 259.756 C 336.668 250.543, 336.445 233.059, 334.035 223.636 C 329.838 207.228, 318.226 190.220, 304.655 180.604 C 296.801 175.040, 292.005 172.643, 282.306 169.434 C 272.188 166.086, 254.991 165.242, 244.561 167.581 M 225 240.500 L 225 276 231.500 276 L 238 276 238 240.500 L 238 205 231.500 205 L 225 205 225 240.500 M 243 240.500 L 243 276.091 249.750 275.796 L 256.500 275.500 256.500 240.500 L 256.500 205.500 249.750 205.204 L 243 204.909 243 240.500 M 296.334 206.214 C 295.801 206.922, 291.818 216.192, 287.483 226.815 C 283.147 237.437, 279.341 246.289, 279.025 246.485 C 278.708 246.680, 274.861 239.927, 270.475 231.477 L 262.500 216.113 262.222 230.145 L 261.944 244.177 270.170 260.088 C 275.743 270.869, 278.926 276, 280.043 276 C 281.242 276, 284.034 270.361, 290.317 255.250 C 295.062 243.838, 299.520 232.925, 300.222 231 C 301.340 227.937, 301.562 230.497, 302 251.500 L 302.500 275.500 309 275.500 L 315.500 275.500 315.500 240.500 L 315.500 205.500 306.402 205.214 C 299.878 205.010, 297.030 205.293, 296.334 206.214 M 210 247.311 L 204.500 250.613 204 257.556 C 203.423 265.569, 204.196 272.596, 205.835 274.235 C 206.461 274.861, 209.116 275.401, 211.736 275.436 L 216.500 275.500 216.775 259.750 C 216.927 251.088, 216.702 244.002, 216.275 244.004 C 215.849 244.006, 213.025 245.494, 210 247.311" stroke="none" fill="#000000" fill-rule="evenodd"/></svg>